<svg width="384" height="84" viewBox="0 0 384 84" fill="none" xmlns="http://www.w3.org/2000/svg">
<g clip-path="url(#clip0_1453_379)">
<path d="M147.247 53.4061V53.6193C147.247 58.8427 143.213 62.5026 137.691 62.5026H112.209C114.121 66.5533 118.049 68.5787 123.995 68.5787C127.158 68.5763 130.292 67.9735 133.232 66.8021C134.26 66.2952 135.38 66.005 136.524 65.9493C137.465 65.9304 138.401 66.1002 139.276 66.4489C140.151 66.7976 140.948 67.318 141.62 67.9798C142.293 68.6416 142.827 69.4315 143.191 70.3031C143.556 71.1747 143.744 72.1106 143.743 73.0559C143.759 74.5592 143.335 76.034 142.523 77.2974C141.712 78.5608 140.548 79.557 139.178 80.1625C134.321 82.799 128.878 84.156 123.358 84.1066C106.157 84.1066 93.5226 72.2741 93.5226 56.1777C93.4475 52.4795 94.1191 48.8043 95.497 45.3737C96.8748 41.9431 98.9304 38.8282 101.54 36.2168C104.149 33.6053 107.258 31.5514 110.679 30.179C114.101 28.8065 117.763 28.1439 121.447 28.231C136.24 28.231 147.247 38.8909 147.247 53.4061ZM111.572 50.528H129.941C129.889 49.4176 129.618 48.3287 129.144 47.3242C128.67 46.3197 128.002 45.4196 127.179 44.676C126.356 43.9325 125.394 43.3602 124.35 42.9923C123.305 42.6245 122.198 42.4684 121.093 42.533C116.456 42.533 112.953 45.6244 111.572 50.528V50.528Z" fill="#362740"/>
<path d="M306.421 56.0711C306.421 71.6345 293.68 84 277.436 84C261.191 84 248.556 71.7411 248.556 56.0711C248.556 40.401 261.191 28.231 277.436 28.231C293.68 28.231 306.421 40.5076 306.421 56.0711ZM267.243 56.0711C267.243 62.6802 271.384 67.1574 277.542 67.1574C283.7 67.1574 287.735 62.467 287.735 56.0711C287.735 49.6751 283.381 44.9848 277.542 44.9848C271.702 44.9848 267.19 49.5508 267.19 56.0711H267.243Z" fill="#362740"/>
<path d="M337.389 10.5534C337.463 12.7265 336.89 14.8723 335.742 16.7163C334.594 18.5603 332.925 20.0186 330.947 20.9045C328.969 21.7905 326.773 22.0639 324.64 21.6897C322.506 21.3154 320.532 20.3106 318.971 18.8039C317.41 17.2971 316.331 15.3568 315.875 13.2314C315.418 11.106 315.603 8.89197 316.406 6.87275C317.21 4.85353 318.595 3.12093 320.385 1.89661C322.175 0.672282 324.287 0.0119258 326.453 5.21248e-05C327.865 -0.0425606 329.271 0.198148 330.59 0.708072C331.908 1.218 333.111 1.98687 334.13 2.96968C335.148 3.9525 335.961 5.1295 336.521 6.43171C337.08 7.73391 337.376 9.13515 337.389 10.5534V10.5534ZM317.428 74.726V37.4163C317.428 34.9849 318.39 32.6531 320.103 30.9339C321.815 29.2146 324.138 28.2488 326.559 28.2488C328.981 28.2488 331.304 29.2146 333.016 30.9339C334.728 32.6531 335.69 34.9849 335.69 37.4163V74.726C335.69 77.1573 334.728 79.4891 333.016 81.2083C331.304 82.9276 328.981 83.8934 326.559 83.8934C324.138 83.8934 321.815 82.9276 320.103 81.2083C318.39 79.4891 317.428 77.1573 317.428 74.726V74.726Z" fill="#362740"/>
<path d="M383.982 36.7766C383.982 41.6801 380.797 44.9847 375.595 45.6598C369.012 46.6192 365.826 50.67 365.826 58.3451V74.6548C365.826 77.0861 364.864 79.4179 363.152 81.1371C361.44 82.8564 359.117 83.8223 356.695 83.8223C354.274 83.8223 351.951 82.8564 350.239 81.1371C348.526 79.4179 347.564 77.0861 347.564 74.6548V37.3451C347.512 36.1461 347.702 34.9488 348.123 33.8255C348.544 32.7022 349.187 31.6762 350.014 30.8095C350.841 29.9427 351.834 29.2532 352.934 28.7825C354.033 28.3119 355.217 28.0698 356.412 28.071C358.292 28.034 360.133 28.6194 361.649 29.7368C363.164 30.8543 364.272 32.4415 364.8 34.2537C366.111 32.5185 367.794 31.1006 369.723 30.1044C371.653 29.1082 373.78 28.5591 375.948 28.4974C377.035 28.4468 378.12 28.6281 379.132 29.0292C380.144 29.4303 381.059 30.0421 381.818 30.8244C382.578 31.6067 383.163 32.5416 383.536 33.5676C383.909 34.5936 384.061 35.6873 383.982 36.7766V36.7766Z" fill="#362740"/>
<path d="M59.5465 28.2309C53.4866 28.0904 47.5631 30.0477 42.7708 33.774C37.9493 30.0386 31.995 28.0815 25.9067 28.2309C10.5998 28.2309 -0.017746 38.8907 -0.017746 54.2588V74.7258C-0.017746 77.1572 0.944261 79.4889 2.65667 81.2082C4.36907 82.9274 6.69161 83.8933 9.11332 83.8933C11.535 83.8933 13.8576 82.9274 15.57 81.2082C17.2824 79.4889 18.2444 77.1572 18.2444 74.7258V52.7664C18.2028 51.7424 18.3713 50.7207 18.7393 49.7647C19.1074 48.8088 19.6672 47.939 20.384 47.2093C21.1008 46.4796 21.9594 45.9056 22.9063 45.5229C23.8533 45.1402 24.8686 44.957 25.889 44.9846C26.9148 44.9552 27.9358 45.1364 28.8894 45.517C29.8431 45.8977 30.7092 46.4698 31.4349 47.1983C32.1606 47.9269 32.7304 48.7965 33.1095 49.754C33.4887 50.7114 33.6691 51.7365 33.6398 52.7664V53.8501C33.6398 53.9923 33.6398 54.1166 33.6398 54.2588V74.7258C33.6011 75.9452 33.8101 77.1597 34.2539 78.2954C34.6977 79.4311 35.3671 80.4642 36.2213 81.3318C37.0756 82.1994 38.0968 82.8834 39.2228 83.3421C40.3488 83.8008 41.5559 84.0246 42.7708 83.9999C43.1263 83.9829 43.4807 83.9473 43.8326 83.8933C45.4204 83.7629 46.9419 83.1968 48.2309 82.2568C49.5198 81.3168 50.5266 80.039 51.141 78.5633C51.646 77.36 51.9048 76.0671 51.9019 74.7613V54.2588C51.9019 54.1344 51.9019 54.01 51.9019 53.8857V52.7664C51.8603 51.7424 52.0288 50.7207 52.3968 49.7647C52.7649 48.8088 53.3247 47.939 54.0416 47.2093C54.7584 46.4796 55.6169 45.9056 56.5639 45.5229C57.5109 45.1402 58.5261 44.957 59.5465 44.9846C60.5723 44.9552 61.5933 45.1364 62.5469 45.517C63.5006 45.8977 64.3667 46.4698 65.0924 47.1983C65.818 47.9269 66.3879 48.7965 66.767 49.754C67.1462 50.7114 67.3266 51.7365 67.2973 52.7664V74.7258C67.2973 75.9297 67.5334 77.1218 67.9923 78.234C68.4512 79.3463 69.1238 80.3569 69.9717 81.2082C70.8196 82.0595 71.8262 82.7348 72.934 83.1955C74.0419 83.6562 75.2293 83.8933 76.4284 83.8933C77.6275 83.8933 78.8148 83.6562 79.9227 83.1955C81.0305 82.7348 82.0371 82.0595 82.885 81.2082C83.7329 80.3569 84.4055 79.3463 84.8644 78.234C85.3232 77.1218 85.5594 75.9297 85.5594 74.7258V54.2588C85.5594 38.8907 74.9419 28.2309 59.5465 28.2309Z" fill="#362740"/>
<path d="M214.775 28.2309C208.715 28.0904 202.791 30.0477 197.999 33.774C193.177 30.0386 187.223 28.0815 181.135 28.2309C165.845 28.2309 155.228 38.8907 155.228 54.3476V74.8146C155.228 76.0185 155.464 77.2106 155.923 78.3229C156.382 79.4351 157.055 80.4458 157.902 81.297C158.75 82.1483 159.757 82.8236 160.865 83.2843C161.973 83.745 163.16 83.9821 164.359 83.9821C165.558 83.9821 166.746 83.745 167.853 83.2843C168.961 82.8236 169.968 82.1483 170.816 81.297C171.664 80.4458 172.336 79.4351 172.795 78.3229C173.254 77.2106 173.49 76.0185 173.49 74.8146V52.7664C173.449 51.7424 173.617 50.7207 173.985 49.7647C174.353 48.8088 174.913 47.939 175.63 47.2093C176.347 46.4796 177.205 45.9056 178.152 45.5229C179.099 45.1402 180.114 44.957 181.135 44.9846C182.161 44.9552 183.182 45.1364 184.135 45.517C185.089 45.8977 185.955 46.4698 186.681 47.1983C187.406 47.9269 187.976 48.7965 188.355 49.754C188.734 50.7114 188.915 51.7365 188.886 52.7664V53.8501C188.886 53.9923 188.886 54.1166 188.886 54.2588V74.7258C188.847 75.9452 189.056 77.1597 189.5 78.2954C189.943 79.4311 190.613 80.4642 191.467 81.3318C192.321 82.1994 193.343 82.8834 194.468 83.3421C195.594 83.8008 196.802 84.0246 198.017 83.9999C198.378 83.9829 198.738 83.9472 199.096 83.8933C200.68 83.7559 202.196 83.1869 203.481 82.2476C204.766 81.3082 205.77 80.0342 206.387 78.5633C206.89 77.3532 207.149 76.0548 207.148 74.7435V54.2588C207.148 54.1344 207.148 54.01 207.148 53.8857V52.7664C207.106 51.7424 207.275 50.7207 207.643 49.7647C208.011 48.8088 208.57 47.939 209.287 47.2093C210.004 46.4796 210.863 45.9056 211.81 45.5229C212.757 45.1402 213.772 44.957 214.792 44.9846C215.818 44.9552 216.839 45.1364 217.793 45.517C218.746 45.8977 219.613 46.4698 220.338 47.1983C221.064 47.9269 221.634 48.7965 222.013 49.754C222.392 50.7114 222.572 51.7365 222.543 52.7664V74.7258C222.543 77.1572 223.505 79.4889 225.217 81.2082C226.93 82.9274 229.252 83.8933 231.674 83.8933C234.096 83.8933 236.418 82.9274 238.131 81.2082C239.843 79.4889 240.805 77.1572 240.805 74.7258V54.2588C240.787 38.8907 230.17 28.2309 214.775 28.2309Z" fill="#362740"/>
</g>
<defs>
<clipPath id="clip0_1453_379">
<rect width="384" height="84" fill="white"/>
</clipPath>
</defs>
</svg>
